<svg xmlns="http://www.w3.org/2000/svg" width="32" height="32" viewBox="0 0 8.467 8.467"><g transform="translate(386.877 -453.106)"><path style="line-height:normal;font-variant-ligatures:normal;font-variant-position:normal;font-variant-caps:normal;font-variant-numeric:normal;font-variant-alternates:normal;font-feature-settings:normal;text-indent:0;text-align:start;text-decoration-line:none;text-decoration-style:solid;text-decoration-color:#000;text-transform:none;text-orientation:mixed;shape-padding:0;isolation:auto;mix-blend-mode:normal" d="M-384.06836 453.70312a.13230489.13230489 0 0 0-.11719.13477v.16406a.132815.132815 0 1 0 .26563 0v-.16406a.13230489.13230489 0 0 0-.14844-.13477zM-384.24805 454.10547l-.1914.01a.13230489.13230489 0 1 0 .0117.26368l.1914-.008a.13293922.13293922 0 1 0-.0117-.26562zM-383.83008 454.10938a.13230489.13230489 0 0 0-.0137.26171l.20703.043a.13252996.13252996 0 1 0 .0527-.25976l-.20704-.041a.13230489.13230489 0 0 0-.0391-.004zM-384.05078 454.42969a.13230489.13230489 0 0 0-.12891.14843l.0156.17188a.13235492.13235492 0 1 0 .26367-.0234l-.0156-.17383a.13230489.13230489 0 0 0-.13476-.12304zM-380.39648 460.4668a.13230489.13230489 0 0 0-.11719.13476v.16406a.13230489.13230489 0 1 0 .26367 0v-.16406a.13230489.13230489 0 0 0-.14648-.13476zM-380.76953 460.22461a.13230489.13230489 0 0 0 .002.26367l.18946.008a.13230489.13230489 0 1 0 .0117-.26367l-.18945-.008a.13230489.13230489 0 0 0-.0137 0zM-379.95703 460.1875a.13230489.13230489 0 0 0-.008.002l-.20704.041a.13252996.13252996 0 1 0 .0527.25976l.20508-.041a.13261444.13261444 0 0 0-.043-.26172zM-380.36328 459.73047a.13230489.13230489 0 0 0-.12891.12109l-.0176.17383a.13245028.13245028 0 1 0 .26368.0254l.0176-.17383a.13230489.13230489 0 0 0-.13476-.14648zM-385.50977 454.39453c-.0618.001-.11444.045-.12695.10547-.0405.19517-.11508.26516-.22266.32617-.10757.061-.2583.0948-.4121.17383-.11769.0577-.0889.23297.041.25.15923.0232.2782.0766.36524.16797.087.0913.14801.22735.17187.43164.0156.13319.19668.16129.25195.0391.073-.15616.12659-.30807.20118-.41601.0746-.10795.15577-.17734.33203-.19922.16825-.0194.14977-.26927-.0195-.26367-.17986.004-.26661-.0413-.33008-.11915-.0635-.0778-.10221-.20698-.11719-.375-.006-.0696-.0649-.12264-.13477-.12109z" color="#000" font-family="sans-serif" font-weight="400" overflow="visible"/><path fill="#ea6153" d="m -385.54457,454.8814 c 0.0275,0.0872 0.0407,0.0963 0.0982,0.16685 0.057,0.0698 0.12185,0.0747 0.21108,0.11192 -0.0869,0.0553 -0.17112,0.086 -0.22371,0.1621 -0.0451,0.0652 -0.0479,0.0574 -0.0792,0.12491 -0.0404,-0.0941 -0.0703,-0.1423 -0.13568,-0.21085 -0.0577,-0.0606 -0.12489,-0.0772 -0.19785,-0.11569 0.0588,-0.0229 0.0819,-0.0292 0.14316,-0.064 0.1071,-0.0673 0.13689,-0.0909 0.18392,-0.17521 z" color="#000" font-family="sans-serif" font-weight="400" overflow="visible" style="line-height:normal;font-variant-ligatures:normal;font-variant-position:normal;font-variant-caps:normal;font-variant-numeric:normal;font-variant-alternates:normal;font-feature-settings:normal;text-indent:0;text-align:start;text-decoration-line:none;text-decoration-style:solid;text-decoration-color:#000;text-transform:none;text-orientation:mixed;shape-padding:0;isolation:auto;mix-blend-mode:normal"/><path d="m -999.51562,882.89062 c -2.05998,-0.0884 -4.14358,0.97138 -5.76558,2.51758 -1.6221,1.54617 -2.8046,3.59783 -2.9297,5.64063 -0.015,0.24523 -0.014,0.49226 0,0.74023 -0.3999,-0.0125 -0.8892,-0.0101 -1.2696,0.0488 -1.1625,0.17991 -2.3459,0.50295 -3.4121,1.08594 -0.9628,0.52645 -1.8855,1.22542 -2.5683,2.13281 -0.8686,1.15431 -1.5442,2.5452 -1.75,4.01563 -0.2366,1.68982 -0.1101,3.57058 0.7089,5.14453 0.9216,1.77078 2.5602,3.15647 4.3184,4.00195 1.5835,0.76146 3.4854,1.14441 5.2559,0.78906 2.1689,-0.43536 4.1607,-1.7558 5.5879,-3.39453 0.8077,-0.92749 1.1076,-2.11981 1.38863,-3.15234 0.2037,-0.74846 0.27005,-1.73296 0.29687,-2.2168 1.84514,-0.1093 3.72775,-1.00732 5.26172,-2.30078 1.78333,-1.50369 3.12187,-3.55983 3.26953,-5.68555 0.15043,-2.16366 -0.91459,-4.42654 -2.50195,-6.19922 -1.58736,-1.77267 -3.72435,-3.07469 -5.89062,-3.16797 z" color="#000" font-family="sans-serif" font-weight="400" overflow="visible" transform="translate(-116.71 220.433) scale(.26458)" style="line-height:normal;font-variant-ligatures:normal;font-variant-position:normal;font-variant-caps:normal;font-variant-numeric:normal;font-variant-alternates:normal;font-feature-settings:normal;text-indent:0;text-align:start;text-decoration-line:none;text-decoration-style:solid;text-decoration-color:#000;text-transform:none;text-orientation:mixed;shape-padding:0;isolation:auto;mix-blend-mode:normal"/><path fill="#fd982f" d="m -999.56055,883.88672 c 1.78405,0.0767 3.7405,1.22562 5.18946,2.84375 1.44899,1.61809 2.36784,3.6801 2.24414,5.46094 -0.12095,1.74296 -1.29082,3.61989 -2.91602,4.99023 -1.6252,1.37034 -3.67402,2.21358 -5.41793,2.06055 -1.6828,-0.1474 -3.4566,-1.28789 -4.7539,-2.86524 -1.2973,-1.57734 -2.1041,-3.57101 -2,-5.26953 0.1035,-1.69153 1.1468,-3.57126 2.621,-4.97656 1.4743,-1.4053 3.3554,-2.31629 5.03325,-2.24414 z" color="#000" font-family="sans-serif" font-weight="400" overflow="visible" transform="translate(-116.71 220.433) scale(.26458)" style="line-height:normal;font-variant-ligatures:normal;font-variant-position:normal;font-variant-caps:normal;font-variant-numeric:normal;font-variant-alternates:normal;font-feature-settings:normal;text-indent:0;text-align:start;text-decoration-line:none;text-decoration-style:solid;text-decoration-color:#000;text-transform:none;text-orientation:mixed;shape-padding:0;isolation:auto;mix-blend-mode:normal"/><path fill="#fd982f" d="m -1008.2695,892.80078 c 0.1078,0.003 0.1065,0.004 0.1992,0.008 0.068,0.32973 0.1608,0.65666 0.2715,0.98243 -0.4654,-0.0615 -0.9954,-0.12217 -1.461,-0.0488 -1.1272,0.17801 -2.2942,0.5885 -3.2109,1.35937 -1.0976,0.92304 -2.0855,2.20813 -2.3633,3.69727 -0.3458,1.85476 -0.086,4.06802 1.168,5.5957 1.3021,1.58642 3.5202,2.43592 5.5351,2.33985 1.8963,-0.0903 3.7247,-1.18824 4.8946,-2.6211 0.6128,-0.75061 0.9252,-1.89716 1.1445,-2.89258 0.1068,-0.48494 0.1803,-0.9271 0.2305,-1.25976 0.3938,0.1257 0.7949,0.21599 1.2011,0.25976 -0.038,0.50629 -0.1157,1.45202 -0.2578,1.97461 -0.2823,1.03714 -0.5728,2.06966 -1.1738,2.75977 -1.2968,1.48909 -3.1376,2.68945 -5.0352,3.07031 -1.4938,0.29972 -3.2041,-0.0248 -4.621,-0.70703 -1.5901,-0.7646 -3.0736,-2.04152 -3.8672,-3.56641 -0.6853,-1.31671 -0.8208,-3.0017 -0.6055,-4.53906 0.1757,-1.25499 0.7784,-2.50612 1.5645,-3.55078 0.5714,-0.75938 1.3766,-1.38704 2.2441,-1.86133 0.9282,-0.50755 2.002,-0.80683 3.0859,-0.97461 0.2333,-0.0361 0.6739,-0.0344 1.0567,-0.0254 z" color="#000" font-family="sans-serif" font-weight="400" overflow="visible" transform="translate(-116.71 220.433) scale(.26458)" style="line-height:normal;font-variant-ligatures:normal;font-variant-position:normal;font-variant-caps:normal;font-variant-numeric:normal;font-variant-alternates:normal;font-feature-settings:normal;text-indent:0;text-align:start;text-decoration-line:none;text-decoration-style:solid;text-decoration-color:#000;text-transform:none;text-orientation:mixed;shape-padding:0;isolation:auto;mix-blend-mode:normal"/><path fill="#fad741" d="m -1008.5684,894.7207 c 0.2194,0.0104 0.4628,0.0328 0.6817,0.0625 0.2914,0.039 0.3885,0.0615 0.5254,0.0879 0.3679,0.75717 0.8361,1.48072 1.3789,2.14063 0.8872,1.07869 1.9763,1.99322 3.1679,2.57422 -0.04,0.29544 -0.1085,0.76813 -0.2519,1.41992 -0.2067,0.93774 -0.5744,2.01836 -0.9453,2.47266 -0.9995,1.22415 -2.6322,2.18685 -4.1621,2.25976 -1.6877,0.0805 -3.6692,-0.69971 -4.7188,-1.97851 -0.9858,-1.20095 -1.2602,-3.15987 -0.959,-4.77539 0.217,-1.16383 1.0556,-2.30128 2.0235,-3.11524 0.7268,-0.61119 1.7287,-0.97979 2.7226,-1.13672 0.1215,-0.0193 0.3177,-0.0221 0.5371,-0.0117 z" color="#000" font-family="sans-serif" font-weight="400" overflow="visible" transform="translate(-116.71 220.433) scale(.26458)" style="line-height:normal;font-variant-ligatures:normal;font-variant-position:normal;font-variant-caps:normal;font-variant-numeric:normal;font-variant-alternates:normal;font-feature-settings:normal;text-indent:0;text-align:start;text-decoration-line:none;text-decoration-style:solid;text-decoration-color:#000;text-transform:none;text-orientation:mixed;shape-padding:0;isolation:auto;mix-blend-mode:normal"/><path d="m -381.17383,454.56836 c -0.42218,-0.0182 -0.84451,0.1976 -1.17187,0.50976 -0.32737,0.31217 -0.5662,0.72672 -0.5918,1.14454 -0.0257,0.41922 0.16131,0.85687 0.44922,1.20703 0.28791,0.35016 0.68193,0.61728 1.10351,0.65429 0.43374,0.0381 0.88826,-0.15942 1.24805,-0.46289 0.35979,-0.30346 0.6319,-0.71894 0.66211,-1.15429 0.0308,-0.44289 -0.1857,-0.90016 -0.50586,-1.25782 -0.32016,-0.35765 -0.75005,-0.62154 -1.19336,-0.64062 z" color="#000" font-family="sans-serif" font-weight="400" overflow="visible" style="line-height:normal;font-variant-ligatures:normal;font-variant-position:normal;font-variant-caps:normal;font-variant-numeric:normal;font-variant-alternates:normal;font-feature-settings:normal;text-indent:0;text-align:start;text-decoration-line:none;text-decoration-style:solid;text-decoration-color:#000;text-transform:none;text-orientation:mixed;shape-padding:0;isolation:auto;mix-blend-mode:normal"/><path fill="#fad741" d="m -381.18553,454.83203 c 0.34215,0.0147 0.72426,0.23793 1.00782,0.55469 0.28355,0.31676 0.46317,0.72086 0.43945,1.0625 -0.0232,0.33411 -0.25041,0.70058 -0.56836,0.96875 -0.31795,0.26817 -0.72029,0.43169 -1.05469,0.40234 -0.32224,-0.0283 -0.66817,-0.25004 -0.92187,-0.55859 -0.2537,-0.30855 -0.4106,-0.69714 -0.39063,-1.02344 0.0199,-0.32492 0.22345,-0.69387 0.51172,-0.96875 0.28827,-0.27488 0.65553,-0.45131 0.97656,-0.4375 z" color="#000" font-family="sans-serif" font-weight="400" overflow="visible" style="line-height:normal;font-variant-ligatures:normal;font-variant-position:normal;font-variant-caps:normal;font-variant-numeric:normal;font-variant-alternates:normal;font-feature-settings:normal;text-indent:0;text-align:start;text-decoration-line:none;text-decoration-style:solid;text-decoration-color:#000;text-transform:none;text-orientation:mixed;shape-padding:0;isolation:auto;mix-blend-mode:normal"/><path d="m -381.16211,455.53711 c -0.0719,-0.004 -0.15165,0.0101 -0.21875,0.0703 -0.17888,0.16071 -0.29858,0.39475 -0.41211,0.52344 -0.0557,0.0632 -0.0694,0.13878 -0.0664,0.20508 0.003,0.0663 0.0217,0.12927 0.0605,0.18554 0.13294,0.19248 0.34488,0.35207 0.4961,0.4668 0.0876,0.0664 0.18991,0.0533 0.26367,0.0254 0.0738,-0.0279 0.13622,-0.0714 0.18359,-0.1289 0.0947,-0.11507 0.27827,-0.26116 0.37305,-0.47657 0.0193,-0.0439 0.0367,-0.0971 0.041,-0.1582 0.004,-0.0611 -0.006,-0.14069 -0.0684,-0.20312 -0.15878,-0.15869 -0.30518,-0.32575 -0.45117,-0.4375 -0.0601,-0.046 -0.12923,-0.0682 -0.20117,-0.0723 z" color="#000" font-family="sans-serif" font-weight="400" overflow="visible" style="line-height:normal;font-variant-ligatures:normal;font-variant-position:normal;font-variant-caps:normal;font-variant-numeric:normal;font-variant-alternates:normal;font-feature-settings:normal;text-indent:0;text-align:start;text-decoration-line:none;text-decoration-style:solid;text-decoration-color:#000;text-transform:none;text-orientation:mixed;shape-padding:0;isolation:auto;mix-blend-mode:normal"/><path fill="#fbb738" d="m -381.17581,455.80078 c 0.0218,0.001 0.048,0.0125 0.0547,0.0176 0.10979,0.084 0.26016,0.24854 0.42578,0.41406 -0.0119,-0.0118 -0.009,-0.0173 -0.01,0 -10e-4,0.0173 -0.01,0.0466 -0.0195,0.0684 -0.0574,0.13049 -0.2137,0.26756 -0.33594,0.41602 -0.0113,0.0138 -0.0449,0.0392 -0.0703,0.0488 -0.0255,0.01 -0.0257,0.003 -0.0117,0.0137 -0.14799,-0.11229 -0.34497,-0.2714 -0.43945,-0.40821 -0.004,-0.006 -0.0129,-0.0293 -0.0137,-0.0469 -7.9e-4,-0.0176 0.006,-0.024 0,-0.0176 0.14967,-0.16965 0.2707,-0.39422 0.39062,-0.50195 -0.005,0.004 0.007,-0.005 0.0293,-0.004 z" color="#000" font-family="sans-serif" font-weight="400" overflow="visible" style="line-height:normal;font-variant-ligatures:normal;font-variant-position:normal;font-variant-caps:normal;font-variant-numeric:normal;font-variant-alternates:normal;font-feature-settings:normal;text-indent:0;text-align:start;text-decoration-line:none;text-decoration-style:solid;text-decoration-color:#000;text-transform:none;text-orientation:mixed;shape-padding:0;isolation:auto;mix-blend-mode:normal"/><path d="m -383.24219,458.01758 c -0.21681,0 -0.44202,-0.041 -0.64453,0.0117 -0.035,0.009 -0.0919,0.0233 -0.15039,0.0605 -0.0585,0.0372 -0.12178,0.11032 -0.13281,0.20508 -0.0271,0.2324 0.0682,0.4587 0.0781,0.59961 0.006,0.0856 0.0559,0.14328 0.10547,0.18359 0.0496,0.0403 0.10565,0.0677 0.16992,0.0781 0.22671,0.0369 0.48988,0.005 0.67774,-0.0176 0.10223,-0.0125 0.16869,-0.0865 0.20312,-0.15429 0.0341,-0.0671 0.0486,-0.13708 0.041,-0.20899 v -0.002 c -0.0135,-0.12711 0.0142,-0.339 -0.0742,-0.54102 h -0.002 v -0.002 c -0.0183,-0.0418 -0.0427,-0.0867 -0.084,-0.12891 -0.0413,-0.0422 -0.10495,-0.084 -0.1875,-0.084 z" color="#000" font-family="sans-serif" font-weight="400" overflow="visible" style="line-height:normal;font-variant-ligatures:normal;font-variant-position:normal;font-variant-caps:normal;font-variant-numeric:normal;font-variant-alternates:normal;font-feature-settings:normal;text-indent:0;text-align:start;text-decoration-line:none;text-decoration-style:solid;text-decoration-color:#000;text-transform:none;text-orientation:mixed;shape-padding:0;isolation:auto;mix-blend-mode:normal"/><path fill="#fbb738" d="m -383.24219,458.28125 c -0.0109,10e-6 -0.0123,-0.005 -0.002,0.006 0.0103,0.0105 0.0235,0.0332 0.0312,0.0508 0.0483,0.11036 0.0357,0.28975 0.0547,0.46484 0.001,0.009 -0.004,0.0443 -0.0137,0.0625 -0.009,0.0182 -0.0107,0.0111 0,0.01 -0.18424,0.0225 -0.4346,0.0467 -0.60156,0.0195 -0.0103,-0.002 -0.0345,-0.0114 -0.0469,-0.0215 -0.0124,-0.0101 -0.007,-0.0165 -0.006,0.002 -0.0149,-0.21207 -0.0944,-0.42643 -0.0801,-0.54883 10e-4,-0.0101 -0.002,-0.005 0.0117,-0.0137 0.0141,-0.009 0.0437,-0.0194 0.0742,-0.0273 0.10863,-0.0283 0.33631,-0.004 0.57812,-0.004 z" color="#000" font-family="sans-serif" font-weight="400" overflow="visible" style="line-height:normal;font-variant-ligatures:normal;font-variant-position:normal;font-variant-caps:normal;font-variant-numeric:normal;font-variant-alternates:normal;font-feature-settings:normal;text-indent:0;text-align:start;text-decoration-line:none;text-decoration-style:solid;text-decoration-color:#000;text-transform:none;text-orientation:mixed;shape-padding:0;isolation:auto;mix-blend-mode:normal"/><path d="M-383.66107 455.09955c.0694-.00075.15762.068.15639.13739-.001.0654-.0866.12579-.152.12424-.0655-.002-.14586-.066-.14618-.13154-.00031-.0641.0777-.1294.14179-.13009zM-384.07448 455.83955c.0694-.00075.15762.068.15639.13739-.001.0654-.0866.12579-.152.12424-.0655-.002-.14586-.066-.14618-.13154-.00031-.0641.0777-.1294.14179-.13009zM-379.70472 459.275c.0694-.00075.15762.068.15639.13739-.001.0654-.0866.12579-.152.12424-.0655-.002-.14586-.066-.14618-.13154-.00031-.0641.0777-.1294.14179-.13009z"/><path style="line-height:normal;font-variant-ligatures:normal;font-variant-position:normal;font-variant-caps:normal;font-variant-numeric:normal;font-variant-alternates:normal;font-feature-settings:normal;text-indent:0;text-align:start;text-decoration-line:none;text-decoration-style:solid;text-decoration-color:#000;text-transform:none;text-orientation:mixed;shape-padding:0;isolation:auto;mix-blend-mode:normal" d="M-383.61914 457.22656a.06615245.06615245 0 0 0-.0273.11914l.18554.13672a.06615245.06615245 0 1 0 .0781-.10547l-.18555-.13672a.06615245.06615245 0 0 0-.0508-.0137zM-383.87305 457.27148a.06615245.06615245 0 0 0-.0391.11719l.19336.16992a.06642064.06642064 0 1 0 .0879-.0996l-.19531-.16992a.06615245.06615245 0 0 0-.0469-.0176zM-384.125 457.38477a.06615245.06615245 0 0 0-.0176.12109l.20117.125a.0666657.0666657 0 1 0 .0703-.11328l-.20313-.12305a.06615245.06615245 0 0 0-.0508-.01zM-384.35742 457.51172a.06615245.06615245 0 0 0-.0215.12695l.21875.0996a.06643583.06643583 0 1 0 .0547-.12109l-.21875-.0996a.06615245.06615245 0 0 0-.0332-.006zM-384.54688 457.69336a.06615245.06615245 0 0 0-.0215.12695l.18555.0937a.06615245.06615245 0 1 0 .0605-.11718l-.18554-.0957a.06615245.06615245 0 0 0-.0391-.008zM-384.70703 457.85938a.06615245.06615245 0 0 0-.0293.12109l.14844.0996a.06615245.06615245 0 1 0 .0742-.10938l-.14844-.0996a.06615245.06615245 0 0 0-.0449-.0117zM-384.79492 458.05273a.06615245.06615245 0 0 0-.0312.125l.21094.11329a.06640735.06640735 0 1 0 .0625-.11719l-.21094-.11133a.06615245.06615245 0 0 0-.0312-.01zM-384.83398 458.28906a.06615245.06615245 0 0 0-.0234.12305l.14844.0918a.06616869.06616869 0 1 0 .0684-.11329l-.14844-.0918a.06615245.06615245 0 0 0-.0449-.01zM-384.82812 458.5332a.06615245.06615245 0 0 0-.0274.12305l.1582.0977a.06615245.06615245 0 1 0 .0703-.11133l-.15821-.0996a.06615245.06615245 0 0 0-.043-.01zM-384.80859 458.78125a.06615245.06615245 0 0 0-.006.13086l.21093.0527a.06615245.06615245 0 1 0 .0312-.12695l-.21093-.0547a.06615245.06615245 0 0 0-.0254-.002zM-384.7832 458.97656a.06615245.06615245 0 0 0-.006.12891l.24414.0742a.06642223.06642223 0 1 0 .0391-.12696l-.24414-.0742a.06615245.06615245 0 0 0-.0332-.002zM-384.67969 459.20703a.06615245.06615245 0 0 0-.008.13086l.24023.0625a.06655955.06655955 0 1 0 .0332-.12891l-.24024-.0625a.06615245.06615245 0 0 0-.0254-.002zM-384.54492 459.45117a.06652536.06652536 0 0 0 .008.13281l.21484.008a.06647773.06647773 0 1 0 .006-.13282l-.21484-.008a.06615245.06615245 0 0 0-.0137 0zM-381.19922 454.9707a.06615245.06615245 0 0 0-.0273.11914l.18554.13672a.06641414.06641414 0 1 0 .0781-.10742l-.18555-.13672a.06615245.06615245 0 0 0-.0508-.0117zM-381.46094 455.01562a.06615245.06615245 0 0 0-.0312.11719l.19531.16797a.06615245.06615245 0 1 0 .0859-.0996l-.19336-.16992a.06615245.06615245 0 0 0-.0566-.0156zM-381.69727 455.12695a.06615245.06615245 0 0 0-.0254.12305l.20313.125a.06616441.06616441 0 1 0 .0684-.11328l-.20313-.125a.06615245.06615245 0 0 0-.043-.01zM-381.94336 455.25586a.06615245.06615245 0 0 0-.0156.12695l.21875.0977a.06615245.06615245 0 1 0 .0547-.11914l-.21875-.0996a.06615245.06615245 0 0 0-.0391-.006zM-382.12695 455.4375a.06615245.06615245 0 0 0-.0215.125l.18555.0957a.06683319.06683319 0 1 0 .0606-.11914l-.18555-.0937a.06615245.06615245 0 0 0-.0391-.008zM-382.2793 455.60156a.06615245.06615245 0 0 0-.0371.12305l.14844.0996a.066901.066901 0 1 0 .0742-.11133l-.14844-.0996a.06615245.06615245 0 0 0-.0371-.0117zM-382.38086 455.79688a.06615245.06615245 0 0 0-.0234.125l.20899.11132a.06640294.06640294 0 1 0 .0625-.11718l-.21094-.11133a.06615245.06615245 0 0 0-.0371-.008zM-382.41406 456.0332a.06615245.06615245 0 0 0-.0234.12305l.14844.0898a.06616441.06616441 0 1 0 .0684-.11328l-.14844-.0898a.06615245.06615245 0 0 0-.0449-.01zM-382.40234 456.27539a.06615245.06615245 0 0 0-.0312.12305l.15625.0996a.06615245.06615245 0 1 0 .0703-.11133l-.15625-.0996a.06615245.06615245 0 0 0-.0391-.0117zM-382.38867 456.52539a.06615245.06615245 0 0 0-.006.12891l.21094.0547a.06655346.06655346 0 1 0 .0332-.1289l-.21094-.0527a.06615245.06615245 0 0 0-.0273-.002zM-382.35547 456.71875a.06615245.06615245 0 0 0-.0137.12891l.24414.0762a.06641745.06641745 0 1 0 .0391-.12695l-.24414-.0742a.06615245.06615245 0 0 0-.0254-.004zM-382.25977 456.95117a.06615245.06615245 0 0 0-.008.12891l.24024.0625a.06615245.06615245 0 1 0 .0332-.12696l-.24024-.0625a.06615245.06615245 0 0 0-.0254-.002zM-382.125 457.19531a.06615245.06615245 0 0 0 .008.13086l.2168.008a.06615245.06615245 0 1 0 .004-.13086l-.21485-.008a.06615245.06615245 0 0 0-.0137 0z" color="#000" font-family="sans-serif" font-weight="400" overflow="visible"/></g></svg>