<svg xmlns="http://www.w3.org/2000/svg" viewBox="0 0 32 32"><rect width="26" height="26" x="3" y="3" fill="#fcbf1e" rx="3" ry="3"/><path fill="#035aa6" d="M3,16V26a3,3,0,0,0,3,3H16.06V16Z"/><path fill="#fbb116" d="M11.41 11l1.3-1.29a1 1 0 0 0-1.42-1.42L10 9.59 8.71 8.29A1 1 0 1 0 7.29 9.71L8.59 11l-1.3 1.29a1 1 0 1 0 1.42 1.42L10 12.41l1.29 1.3a1 1 0 0 0 1.42-1.42zM23.41 23l1.3-1.29a1 1 0 0 0-1.42-1.42L22 21.59l-1.29-1.3a1 1 0 0 0-1.42 1.42L20.59 23l-1.3 1.29a1 1 0 0 0 1.42 1.42L22 24.41l1.29 1.3a1 1 0 0 0 1.42-1.42z"/><path fill="#024894" d="M10,26a3,3,0,1,1,3-3A3,3,0,0,1,10,26Zm0-4a1,1,0,1,0,1,1A1,1,0,0,0,10,22Z"/><path fill="#120136" d="M11.41 10l1.3-1.29a1 1 0 1 0-1.42-1.42L10 8.59 8.71 7.29A1 1 0 1 0 7.29 8.71L8.59 10l-1.3 1.29a1 1 0 1 0 1.42 1.42L10 11.41l1.29 1.3a1 1 0 0 0 1.42-1.42zM23.41 22l1.3-1.29a1 1 0 0 0-1.42-1.42L22 20.59l-1.29-1.3a1 1 0 0 0-1.42 1.42L20.59 22l-1.3 1.29a1 1 0 0 0 1.42 1.42L22 23.41l1.29 1.3a1 1 0 0 0 1.42-1.42zM10 25a3 3 0 1 1 3-3A3 3 0 0 1 10 25zm0-4a1 1 0 1 0 1 1A1 1 0 0 0 10 21z"/><path fill="#b3cde4" d="M4.5,25a.5.5,0,0,0-.5.5A2.5,2.5,0,0,0,6.5,28a.5.5,0,0,0,0-1A1.5,1.5,0,0,1,5,25.5.5.5,0,0,0,4.5,25Z"/><circle cx="8" cy="27.5" r=".5" fill="#b3cde4"/><path fill="#fbb116" d="M26,3H6A3,3,0,0,0,3.45,4.45,2.93,2.93,0,0,1,5,4H25a3,3,0,0,1,3,3V27a2.93,2.93,0,0,1-.45,1.55A3,3,0,0,0,29,26V6A3,3,0,0,0,26,3Z"/><path fill="#035aa6" d="M26,3H16.06V16H29V6A3,3,0,0,0,26,3Z"/><path fill="#024894" d="M22,14a3,3,0,1,1,3-3A3,3,0,0,1,22,14Zm0-4a1,1,0,1,0,1,1A1,1,0,0,0,22,10Z"/><path fill="#120136" d="M22,13a3,3,0,1,1,3-3A3,3,0,0,1,22,13Zm0-4a1,1,0,1,0,1,1A1,1,0,0,0,22,9Z"/></svg>